<svg width="42" height="44" version="1.1" xmlns="http://www.w3.org/2000/svg" desc="Created with imagetracer.js version 1.2.6" ><path fill="rgb(255,255,255)" stroke="rgb(255,255,255)" stroke-width="1" opacity="1" d="M 0 0 L 42 0 L 42 44 L 0 44 L 0 0 Z M 20 8 L 7 19 L 7 33 L 8 35 L 14 38 L 32 38 L 34 37 L 37 32 L 37 19 L 25 8 L 20 8 Z " /><path fill="rgb(107,196,255)" stroke="rgb(107,196,255)" stroke-width="1" opacity="1" d="M 23.5 8 L 26 9.5 L 24.5 9 L 23.5 8 Z " /><path fill="rgb(107,196,255)" stroke="rgb(107,196,255)" stroke-width="1" opacity="1" d="M 16.5 10 L 15.5 12 L 16.5 10 Z " /><path fill="rgb(107,196,255)" stroke="rgb(107,196,255)" stroke-width="1" opacity="1" d="M 27.5 10 L 28.5 12 L 27.5 10 Z " /><path fill="rgb(107,196,255)" stroke="rgb(107,196,255)" stroke-width="1" opacity="1" d="M 13.5 12 L 8 18.5 L 7.5 20 L 7 18.5 L 13.5 12 Z " /><path fill="rgb(107,196,255)" stroke="rgb(107,196,255)" stroke-width="1" opacity="1" d="M 30.5 12 L 35.5 18 L 30.5 12 Z " /><path fill="rgb(107,196,255)" stroke="rgb(107,196,255)" stroke-width="1" opacity="1" d="M 36.5 26 L 37 31.5 L 36 31.5 L 36.5 26 Z " /><path fill="rgb(107,196,255)" stroke="rgb(107,196,255)" stroke-width="1" opacity="1" d="M 7.5 27 L 8 30.5 L 7 30.5 L 7.5 27 Z " /><path fill="rgb(107,196,255)" stroke="rgb(107,196,255)" stroke-width="1" opacity="1" d="M 13.5 37 L 17 37.5 L 13.5 38 L 13.5 37 Z " /><path fill="rgb(107,196,255)" stroke="rgb(107,196,255)" stroke-width="1" opacity="1" d="M 26.5 37 L 30 37.5 L 26.5 38 L 26.5 37 Z " /><path fill="rgb(0,161,255)" stroke="rgb(0,161,255)" stroke-width="1" opacity="1" d="M 21.5 8 Q 30.8 11.2 36 18.5 L 37 25.5 Q 34.5 27 36 32.5 L 33.5 36 L 25.5 38 L 17.5 38 L 12.5 37 L 9 34.5 L 7 26.5 L 7 20.5 L 14.5 12 L 21.5 8 Z " /></svg>